HIERARCHY
ROOT hip
{
  OFFSET 0 0 0
  CHANNELS 6 Xposition Yposition Zposition Zrotation Yrotation Xrotation
  JOINT abdomen
  {
    OFFSET 0 20.6881 -0.73152
    CHANNELS 3 Zrotation Xrotation Yrotation
    JOINT chest
    {
      OFFSET 0 11.7043 -0.48768
      CHANNELS 3 Zrotation Xrotation Yrotation
      JOINT neck
      {
        OFFSET 0 22.1894 -2.19456
        CHANNELS 3 Zrotation Xrotation Yrotation
        JOINT head
        {
          OFFSET -0.24384 7.07133 1.2192
          CHANNELS 3 Zrotation Xrotation Yrotation
          JOINT leftEye
          {
            OFFSET 4.14528 8.04674 8.04672
            CHANNELS 3 Zrotation Xrotation Yrotation
            End Site
            {
              OFFSET 1 0 0
            }
          }
          JOINT rightEye
          {
            OFFSET -3.6576 8.04674 8.04672
            CHANNELS 3 Zrotation Xrotation Yrotation
            End Site
            {
              OFFSET 1 0 0
            }
          }
        }
      }
      JOINT rCollar
      {
        OFFSET -2.68224 19.2634 -4.8768
        CHANNELS 3 Zrotation Xrotation Yrotation
        JOINT rShldr
        {
          OFFSET -8.77824 -1.95073 1.46304
          CHANNELS 3 Zrotation Xrotation Yrotation
          JOINT rForeArm
          {
            OFFSET -28.1742 -1.7115 0.48768
            CHANNELS 3 Zrotation Xrotation Yrotation
            JOINT rHand
            {
              OFFSET -22.5879 0.773209 7.07136
              CHANNELS 3 Zrotation Xrotation Yrotation
              JOINT rThumb1
              {
                OFFSET -1.2192 -0.487915 3.41376
                CHANNELS 3 Zrotation Xrotation Yrotation
                JOINT rThumb2
                {
                  OFFSET -3.37035 -0.52449 3.41376
                  CHANNELS 3 Zrotation Xrotation Yrotation
                  End Site
                  {
                    OFFSET -1.78271 -1.18214 1.43049
                  }
                }
              }
              JOINT rIndex1
              {
                OFFSET -7.75947 0.938293 5.60832
                CHANNELS 3 Zrotation Xrotation Yrotation
                JOINT rIndex2
                {
                  OFFSET -2.54057 -0.884171 1.56538
                  CHANNELS 3 Zrotation Xrotation Yrotation
                  End Site
                  {
                    OFFSET -1.62519 -0.234802 1.16502
                  }
                }
              }
              JOINT rMid1
              {
                OFFSET -8.24714 1.18213 3.41376
                CHANNELS 3 Zrotation Xrotation Yrotation
                JOINT rMid2
                {
                  OFFSET -3.10165 -0.590103 1.0647
                  CHANNELS 3 Zrotation Xrotation Yrotation
                  End Site
                  {
                    OFFSET -2.48547 -0.328903 0.83742
                  }
                }
              }
              JOINT rRing1
              {
                OFFSET -8.82822 0.546677 1.51678
                CHANNELS 3 Zrotation Xrotation Yrotation
                JOINT rRing2
                {
                  OFFSET -2.60934 -0.819778 -0.0198488
                  CHANNELS 3 Zrotation Xrotation Yrotation
                  End Site
                  {
                    OFFSET -2.33842 -0.294052 0.168128
                  }
                }
              }
              JOINT rPinky1
              {
                OFFSET -8.27202 -0.0477905 -0.4584
                CHANNELS 3 Zrotation Xrotation Yrotation
                JOINT rPinky2
                {
                  OFFSET -1.82734 -0.647385 -0.700984
                  CHANNELS 3 Zrotation Xrotation Yrotation
                  End Site
                  {
                    OFFSET -1.69225 -0.51767 -0.607171
                  }
                }
              }
            }
          }
        }
      }
      JOINT lCollar
      {
        OFFSET 2.68224 19.2634 -4.8768
        CHANNELS 3 Zrotation Xrotation Yrotation
        JOINT lShldr
        {
          OFFSET 8.77824 -1.95073 1.46304
          CHANNELS 3 Zrotation Xrotation Yrotation
          JOINT lForeArm
          {
            OFFSET 28.1742 -1.7115 0.48768
            CHANNELS 3 Zrotation Xrotation Yrotation
            JOINT lHand
            {
              OFFSET 22.5879 0.773209 7.07136
              CHANNELS 3 Zrotation Xrotation Yrotation
              JOINT lThumb1
              {
                OFFSET 1.2192 -0.487915 3.41376
                CHANNELS 3 Zrotation Xrotation Yrotation
                JOINT lThumb2
                {
                  OFFSET 3.37035 -0.52449 3.41376
                  CHANNELS 3 Zrotation Xrotation Yrotation
                  End Site
                  {
                    OFFSET 1.78271 -1.18214 1.43049
                  }
                }
              }
              JOINT lIndex1
              {
                OFFSET 7.75947 0.938293 5.60832
                CHANNELS 3 Zrotation Xrotation Yrotation
                JOINT lIndex2
                {
                  OFFSET 2.54057 -0.884171 1.56538
                  CHANNELS 3 Zrotation Xrotation Yrotation
                  End Site
                  {
                    OFFSET 1.62519 -0.234802 1.16502
                  }
                }
              }
              JOINT lMid1
              {
                OFFSET 8.24714 1.18213 3.41376
                CHANNELS 3 Zrotation Xrotation Yrotation
                JOINT lMid2
                {
                  OFFSET 3.10165 -0.590103 1.0647
                  CHANNELS 3 Zrotation Xrotation Yrotation
                  End Site
                  {
                    OFFSET 2.48547 -0.328903 0.83742
                  }
                }
              }
              JOINT lRing1
              {
                OFFSET 8.82822 0.546677 1.51678
                CHANNELS 3 Zrotation Xrotation Yrotation
                JOINT lRing2
                {
                  OFFSET 2.60934 -0.819778 -0.0198488
                  CHANNELS 3 Zrotation Xrotation Yrotation
                  End Site
                  {
                    OFFSET 2.33842 -0.294052 0.168128
                  }
                }
              }
              JOINT lPinky1
              {
                OFFSET 8.27202 -0.0477905 -0.4584
                CHANNELS 3 Zrotation Xrotation Yrotation
                JOINT lPinky2
                {
                  OFFSET 1.82734 -0.647385 -0.700984
                  CHANNELS 3 Zrotation Xrotation Yrotation
                  End Site
                  {
                    OFFSET 1.69225 -0.51767 -0.607171
                  }
                }
              }
            }
          }
        }
      }
    }
  }
  JOINT rButtock
  {
    OFFSET -8.77824 4.35084 1.2192
    CHANNELS 3 Zrotation Xrotation Yrotation
    JOINT rThigh
    {
      OFFSET 0 -1.70687 -2.19456
      CHANNELS 3 Zrotation Xrotation Yrotation
      JOINT rShin
      {
        OFFSET 0 -36.8199 0.73152
        CHANNELS 3 Zrotation Xrotation Yrotation
        JOINT rFoot
        {
          OFFSET 0.73152 -45.1104 -5.12064
          CHANNELS 3 Zrotation Xrotation Yrotation
          End Site
          {
            OFFSET -1.1221 -3.69964 12.103
          }
        }
      }
    }
  }
  JOINT lButtock
  {
    OFFSET 8.77824 4.35084 1.2192
    CHANNELS 3 Zrotation Xrotation Yrotation
    JOINT lThigh
    {
      OFFSET 0 -1.70687 -2.19456
      CHANNELS 3 Zrotation Xrotation Yrotation
      JOINT lShin
      {
        OFFSET 0 -36.8199 0.73152
        CHANNELS 3 Zrotation Xrotation Yrotation
        JOINT lFoot
        {
          OFFSET -0.73152 -45.1104 -5.12064
          CHANNELS 3 Zrotation Xrotation Yrotation
          End Site
          {
            OFFSET 1.1221 -3.69964 12.103
          }
        }
      }
    }
  }
}
MOTION
Frames:	4
Frame Time:	0.00833333
-0.945914 96.9082 -50.3388 -1.2708 4.5304 7.5429 -2.21834 19.2351 0.97733 2.62318 1.68953 0.212525 -1.53235 4.21842 -1.23201 4.31955 9.56649 -2.34765 -0.0 0.0 0.0 -0.0 0.0 0.0 6.69366e-14 1.45648e-14 -7.14033e-15 71.1871 18.4948 36.7245 -12.2949 -5.65759 22.182 -1.03415 27.5856 4.21089 -3.3159e-10 7.12784e-10 -4.15888e-10 -5.83352e-10 1.22745e-09 -7.08137e-10 -3.31586e-10 7.12779e-10 -4.15901e-10 7.73091 5.47488 0.417314 -3.3159e-10 7.12783e-10 -4.15893e-10 2.90554 0.965183 0.102902 -3.31577e-10 7.12782e-10 -4.15888e-10 10.2786 0.731801 0.0259123 -3.31589e-10 7.12785e-10 -4.15877e-10 2.22167 -0.733487 -0.20892 6.69928e-14 1.45577e-14 -7.2405e-15 -57.4783 32.6897 -50.2649 14.2903 -7.19243 -26.1375 0.866213 -25.4564 3.83587 -4.82871e-11 -7.39275e-11 -5.53043e-10 -6.98743e-11 -1.06051e-10 -9.59543e-10 -4.82971e-11 -7.39313e-11 -5.53022e-10 -7.73091 5.47488 -0.417314 -4.82845e-11 -7.39219e-11 -5.53037e-10 -2.90554 0.965183 -0.102902 -4.82952e-11 -7.39207e-11 -5.53038e-10 -10.2786 0.731801 -0.0259123 -4.82857e-11 -7.39215e-11 -5.5304e-10 -2.22167 -0.733487 0.20892 -2.03217e-16 0.0 -3.88251e-19 -5.19724 -33.2218 -9.09927 -0.190378 25.3042 0.0993268 1.09418 22.0112 -5.16359 2.03217e-16 0.0 3.88251e-19 5.61528 -35.8187 4.88403 0.0646234 24.7901 -0.297753 1.43336 23.8453 -2.87341
-0.947909 95.7706 -49.5311 -1.3164 4.6153 7.0629 -2.21754 18.6407 1.04027 2.62693 1.80443 0.224833 -1.57365 4.29616 -1.26465 4.44631 10.0912 -2.42973 -0.0 0.0 0.0 -0.0 0.0 0.0 9.46051e-14 -3.17823e-15 -3.73218e-14 71.5567 18.4734 35.7197 -12.2597 -5.63243 22.1137 -1.05645 27.852 4.2588 -2.65191e-10 6.75454e-10 -3.7244e-10 -4.68313e-10 1.16444e-09 -6.34699e-10 -2.65187e-10 6.75452e-10 -3.72452e-10 7.73091 5.47488 0.417314 -2.65191e-10 6.75453e-10 -3.72443e-10 2.90554 0.965183 0.102902 -2.65177e-10 6.75455e-10 -3.7244e-10 10.2786 0.731801 0.0259123 -2.65191e-10 6.75456e-10 -3.72427e-10 2.22167 -0.733487 -0.20892 9.46442e-14 -3.1825e-15 -3.74212e-14 -58.0307 32.7853 -49.2954 14.0932 -7.02995 -25.7419 0.831664 -24.9771 3.75367 -1.55873e-10 -3.0763e-10 -4.26252e-10 -2.59296e-10 -5.16354e-10 -7.41511e-10 -1.55884e-10 -3.07634e-10 -4.26232e-10 -7.73091 5.47488 -0.417314 -1.5587e-10 -3.07624e-10 -4.26245e-10 -2.90554 0.965183 -0.102902 -1.55879e-10 -3.07622e-10 -4.26246e-10 -10.2786 0.731801 -0.0259123 -1.55871e-10 -3.07622e-10 -4.26248e-10 -2.22167 -0.733487 0.20892 -2.03217e-16 0.0 -3.88251e-19 -5.05452 -32.2594 -8.75958 -0.188305 25.2547 0.107954 0.921542 21.713 -4.66691 2.03217e-16 0.0 3.88251e-19 5.72761 -35.043 4.9602 0.0648881 24.7641 -0.293799 1.46365 24.028 -2.94571
-0.944528 94.557 -48.7088 -1.3672 4.7348 6.5691 -2.17375 18.0119 1.07592 2.62073 1.91521 0.231085 -1.60295 4.39094 -1.29745 4.53786 10.5009 -2.50928 -0.0 0.0 0.0 -0.0 0.0 0.0 8.60921e-14 -1.53926e-15 -2.33782e-14 71.9115 18.4697 34.6538 -12.2405 -5.61864 22.0764 -1.07787 28.1037 4.30434 -3.49503e-10 7.91911e-10 -4.03966e-10 -6.1455e-10 1.36374e-09 -6.87154e-10 -3.49499e-10 7.91911e-10 -4.03978e-10 7.73091 5.47488 0.417314 -3.49502e-10 7.91909e-10 -4.03966e-10 2.90554 0.965183 0.102902 -3.49489e-10 7.91914e-10 -4.03966e-10 10.2786 0.731801 0.0259123 -3.49502e-10 7.91914e-10 -4.03953e-10 2.22167 -0.733487 -0.20892 8.60798e-14 -1.54199e-15 -2.34954e-14 -58.5849 32.9148 -48.2267 13.9414 -6.9062 -25.4388 0.808125 -24.6424 3.69666 -2.87913e-10 -5.43865e-10 -3.62367e-10 -4.89305e-10 -9.28268e-10 -6.33128e-10 -2.87923e-10 -5.43869e-10 -3.62351e-10 -7.73091 5.47488 -0.417314 -2.8791e-10 -5.43859e-10 -3.62362e-10 -2.90554 0.965183 -0.102902 -2.87918e-10 -5.43858e-10 -3.62363e-10 -10.2786 0.731801 -0.0259123 -2.87912e-10 -5.43858e-10 -3.62366e-10 -2.22167 -0.733487 0.20892 -2.03217e-16 0.0 -3.88251e-19 -4.91406 -31.3067 -8.40348 -0.186716 25.3567 0.12629 0.670124 21.2864 -3.91621 2.03217e-16 0.0 3.88251e-19 5.81846 -34.2757 5.02426 0.0682138 24.9282 -0.299312 1.674 24.4361 -3.48742
-0.93686 93.2635 -47.8749 -1.4174 4.8704 6.0745 -2.09961 17.3517 1.09762 2.60961 2.0184 0.234427 -1.62908 4.5025 -1.3312 4.60896 10.8171 -2.58765 -0.0 0.0 0.0 -0.0 0.0 0.0 5.61776e-14 1.11323e-14 1.51325e-14 72.2563 18.4728 33.5268 -12.2344 -5.61427 22.0646 -1.09951 28.3541 4.34986 -5.16789e-10 9.86207e-10 -4.69593e-10 -9.04486e-10 1.69559e-09 -7.96538e-10 -5.16786e-10 9.8621e-10 -4.69604e-10 7.73091 5.47488 0.417314 -5.16787e-10 9.86205e-10 -4.6959e-10 2.90554 0.965183 0.102902 -5.16777e-10 9.86213e-10 -4.69595e-10 10.2786 0.731801 0.0259123 -5.16787e-10 9.86213e-10 -4.69583e-10 2.22167 -0.733487 -0.20892 5.60898e-14 1.11308e-14 1.49834e-14 -59.1508 33.0592 -47.0666 13.8216 -6.81019 -25.1984 0.79113 -24.4006 3.65555 -4.37589e-10 -7.90533e-10 -3.26755e-10 -7.49075e-10 -1.35704e-09 -5.74116e-10 -4.37597e-10 -7.90536e-10 -3.26742e-10 -7.73091 5.47488 -0.417314 -4.37587e-10 -7.90529e-10 -3.26752e-10 -2.90554 0.965183 -0.102902 -4.37592e-10 -7.90528e-10 -3.26753e-10 -10.2786 0.731801 -0.0259123 -4.37587e-10 -7.90528e-10 -3.26756e-10 -2.22167 -0.733487 0.20892 -2.03217e-16 0.0 -3.88251e-19 -4.77497 -30.3562 -8.02427 -0.185731 25.5901 0.152533 0.365994 20.7556 -2.96005 2.03217e-16 0.0 3.88251e-19 5.89934 -33.51 5.10194 0.0743066 25.2664 -0.312142 2.02466 25.0081 -4.36142
